<svg xmlns="http://www.w3.org/2000/svg" width="31" height="30" fill="none"><path fill="url(#a)" stroke="#4C33E7" stroke-width=".978" d="M4.11 4.066c-1.289 0-2.376.998-2.376 2.281 0 1.285 1.088 2.282 2.375 2.282h22.63c1.29 0 2.375-.997 2.375-2.282 0-1.282-1.085-2.281-2.375-2.281H4.11Zm0 8.963c-1.288 0-2.376.997-2.376 2.282 0 1.285 1.088 2.282 2.375 2.282h15.716c1.29 0 2.375-.997 2.375-2.282 0-1.285-1.086-2.282-2.375-2.282H4.109Zm0 13.527h22.63c1.289 0 2.374-.997 2.374-2.281 0-1.285-1.085-2.282-2.375-2.282H4.11c-1.287 0-2.375.997-2.375 2.282 0 1.285 1.088 2.282 2.375 2.282Z"/><defs><linearGradient id="a" x1="2.223" x2="29.313" y1="4.635" y2="5.906" gradientUnits="userSpaceOnUse"><stop offset=".118" stop-color="#FFB018"/><stop offset="1" stop-color="#EB6900"/></linearGradient></defs></svg>